<svg width="160" height="160" viewBox="0 0 160 160" fill="none" xmlns="http://www.w3.org/2000/svg">
  <rect width="160" height="160" rx="32" fill="#0A0B0F"/>
  <circle cx="80" cy="80" r="56" fill="url(#kimi-grad)"/>
  <path d="M55 60c0-8.8 7.2-16 16-16h34c8.8 0 16 7.2 16 16v6c0 5.5-4.5 10-10 10h-46c-5.5 0-10-4.5-10-10v-6z" fill="#FFFFFF" opacity="0.95"/>
  <circle cx="72" cy="69" r="5" fill="#0A0B0F"/>
  <circle cx="88" cy="69" r="5" fill="#0A0B0F"/>
  <path d="M55 92c0 6 4 10 10 10h30c6 0 10-4 10-10v-3H55v3z" fill="#FFFFFF" opacity="0.95"/>
  <circle cx="135" cy="35" r="12" fill="#FFD54F"/>
  <defs>
    <linearGradient id="kimi-grad" x1="24" y1="24" x2="136" y2="136" gradientUnits="userSpaceOnUse">
      <stop stop-color="#5AC8FA"/>
      <stop offset="1" stop-color="#4A90E2"/>
    </linearGradient>
  </defs>
</svg>