<svg width="56" height="56" viewBox="0 0 56 56" fill="none" xmlns="http://www.w3.org/2000/svg">
  <rect width="56" height="56" rx="12" fill="#1a1c22"/>
  <circle cx="28" cy="28" r="20" fill="url(#kimi-grad)"/>
  <path d="M28 12c-8.8 0-16 7.2-16 16s7.2 16 16 16 16-7.2 16-16-7.2-16-16-16zm0 4.5c2.2 0 4.3.8 5.9 2.1l-2.5 2.5c-1-.8-2.2-1.3-3.4-1.3-3.5 0-6.3 2.8-6.3 6.3s2.8 6.3 6.3 6.3c1.3 0 2.5-.4 3.4-1.1l2.5 2.5c-1.6 1.3-3.7 2.1-5.9 2.1-5.4 0-9.7-4.4-9.7-9.7s4.4-9.7 9.7-9.7z" fill="#fff"/>
  <circle cx="42" cy="14" r="5" fill="#FFD54F"/>
  <defs>
    <linearGradient id="kimi-grad" x1="0" y1="0" x2="56" y2="56" gradientUnits="userSpaceOnUse">
      <stop stop-color="#5AC8FA"/>
      <stop offset="1" stop-color="#4A90E2"/>
    </linearGradient>
  </defs>
</svg>