<svg width="186" height="56" viewBox="0 0 186 56" fill="none" xmlns="http://www.w3.org/2000/svg">
<path d="M39.5139 0C45.2845 0 48.1702 2.47984e-05 50.3743 1.12305C52.3129 2.11089 53.8894 3.68731 54.8772 5.62598C56.0001 7.82995 56.0002 10.7153 56.0002 16.4854V39.5146C56.0002 45.2847 56.0001 48.17 54.8772 50.374C53.8894 52.3127 52.3129 53.8891 50.3743 54.877C48.1702 56 45.2845 56 39.5139 56H16.4856C10.7151 56 7.8293 56 5.62524 54.877C3.6867 53.8891 2.11107 52.3126 1.12329 50.374C0.000293286 48.17 0.000244141 45.2849 0.000244141 39.5146V16.4854C0.000244141 10.7151 0.000292188 7.82999 1.12329 5.62598C2.11107 3.68739 3.6867 2.11089 5.62524 1.12305C7.8293 2.47984e-05 10.7151 0 16.4856 0H39.5139ZM23.8108 30.958C23.508 30.9581 23.2078 31.0175 22.928 31.1338C22.648 31.2502 22.3933 31.4216 22.179 31.6367L17.7708 36.0625L16.5989 34.8867C15.738 34.0228 14.2651 34.4498 13.9973 35.6426L12.3274 43.0713C12.2688 43.3267 12.2754 43.593 12.3479 43.8447C12.4202 44.0956 12.5552 44.3246 12.7395 44.5088L12.7385 44.5107C12.9223 44.6967 13.1501 44.8324 13.4006 44.9053C13.6516 44.9782 13.9176 44.9856 14.1721 44.9268L21.5715 43.25C22.759 42.9812 23.1854 41.502 22.3245 40.6377L21.1526 39.4619L25.5618 35.0371C25.9945 34.6025 26.2375 34.012 26.2375 33.3975C26.2375 32.783 25.9945 32.1934 25.5618 31.7588L25.5032 31.6992L25.5051 31.6982L25.4436 31.6367C25.2293 31.4215 24.9746 31.2503 24.6946 31.1338C24.4146 31.0174 24.1138 30.958 23.8108 30.958ZM39.7141 28.1689C38.6845 27.5158 37.3432 28.2597 37.343 29.4824V31.1445H27.8958C28.2114 31.7502 28.3918 32.439 28.3918 33.1699C28.3917 34.2266 28.0179 35.196 27.3967 35.9521H37.342V37.6143C37.3423 38.837 38.6845 39.58 39.7141 38.9268L46.1282 34.8613C46.6079 34.5556 46.8478 34.0509 46.8479 33.5469C46.8472 33.0436 46.6069 32.5399 46.1262 32.2354L39.7141 28.1689ZM24.0393 10.4062C23.7782 10.4051 23.521 10.4712 23.2922 10.5977C23.0633 10.7243 22.8693 10.9083 22.7307 11.1309L18.6809 17.5684H18.679C18.0282 18.602 18.7696 19.9499 19.9875 19.9502H21.6438V29.5137C22.331 29.0592 23.1539 28.794 24.0383 28.7939C24.923 28.794 25.7456 29.0599 26.4329 29.5146V19.9502H28.0901C29.308 19.9501 30.0473 18.6028 29.3977 17.5684L25.3459 11.1309C25.0417 10.6489 24.5408 10.4068 24.0393 10.4062Z" fill="#FFFCF6"/>
<path d="M161.692 53.3701V48.0496H164.302C166.611 48.0496 167.665 48.0998 168.819 45.2389L169.121 44.486L158.781 17.5827H166.36L172.483 37.0575L178.758 17.5827H185.784L175.897 43.7833C172.734 52.1654 171.329 53.3701 164.603 53.3701H161.692Z" fill="#FFFCF6"/>
<path d="M156.687 44.5864H149.76V8.1967H156.687V44.5864Z" fill="#FFFCF6"/>
<path d="M144.554 17.5827V44.5863H137.627V17.5827H144.554Z" fill="#FFFCF6"/>
<path d="M122.31 37.5594L128.634 17.5827H135.51L125.823 44.5863H118.545L108.707 17.5827H115.985L122.31 37.5594Z" fill="#FFFCF6"/>
<path d="M93.5898 45.2389C88.4199 45.2389 83.8524 42.2273 83.8524 37.3084C83.8524 30.934 91.03 29.0267 101.621 27.822V27.3703C101.621 23.2043 99.3619 21.7487 96.5512 21.7487C93.8909 21.7487 91.6825 23.1541 91.5319 26.1155H85.057C85.559 20.7951 89.9759 16.88 96.9025 16.88C103.327 16.88 108.547 19.6406 108.547 28.7757C108.547 29.629 108.447 33.1926 108.447 35.6521C108.447 39.9185 108.748 42.3277 109.25 44.5864H102.875C102.675 43.7331 102.524 42.5285 102.424 41.2235C100.516 44.0343 97.6554 45.2389 93.5898 45.2389ZM101.821 32.239C94.0917 33.0421 90.9798 33.9455 90.9798 36.9571C90.9798 38.9146 92.5357 40.5208 95.6477 40.5208C99.9643 40.5208 101.821 38.1617 101.821 34.2467V32.239Z" fill="#FFFCF6"/>
<path d="M68.9743 10.2546H75.9009V17.5827H81.5225V22.351H75.9009V36.3046C75.9009 39.0652 76.8546 39.6173 79.314 39.6173H81.4221V44.5864H76.3526C70.1789 44.5864 68.9743 42.6791 68.9743 37.3084V22.351H65.1597V17.5827H68.9743V10.2546Z" fill="#FFFCF6"/>
<path d="M141.091 7.21829C138.985 7.21829 137.276 8.92583 137.276 11.0322C137.276 13.1385 138.985 14.8461 141.091 14.8461C143.197 14.8461 144.905 13.1385 144.905 11.0322C144.905 8.92583 143.197 7.21829 141.091 7.21829Z" fill="#FFFCF6"/>
</svg>
