<svg width="56" height="56" viewBox="0 0 56 56" fill="none" xmlns="http://www.w3.org/2000/svg">
  <rect width="56" height="56" rx="12" fill="#1a1c22"/>
  <circle cx="28" cy="28" r="20" fill="url(#zhipu-grad)"/>
  <path d="M28 14c-7.7 0-14 6.3-14 14s6.3 14 14 14 14-6.3 14-14-6.3-14-14-14zm-1.5 4h3v6.5l5.5-3.2 1.5 2.6L31 27l5.5 3.1-1.5 2.6-5.5-3.2V36h-3v-6.5l-5.5 3.2-1.5-2.6L25 27l-5.5-3.1 1.5-2.6 5.5 3.2V18z" fill="#fff"/>
  <defs>
    <linearGradient id="zhipu-grad" x1="0" y1="0" x2="56" y2="56" gradientUnits="userSpaceOnUse">
      <stop stop-color="#7B61FF"/>
      <stop offset="1" stop-color="#4338CA"/>
    </linearGradient>
  </defs>
</svg>