<svg width="160" height="160" viewBox="0 0 160 160" fill="none" xmlns="http://www.w3.org/2000/svg">
  <rect width="160" height="160" rx="32" fill="#0A0B0F"/>
  <circle cx="80" cy="80" r="56" fill="url(#zhipu-grad)"/>
  <!-- "智" character stylized as logo mark; Zhipu's brand uses purple/indigo gradient -->
  <path d="M62 48h36v8H72v8h22v8H72v8h26v8H72v18c0 4 2 6 6 6h22c3 0 5-1 6-3l4 8c-2 3-5 4-10 4H76c-9 0-14-5-14-14V88h-8v-8h8v-8h-8v-8h8V48zm44 28l8-2 8 28-8 2-8-28zm-4 14l4 22-8 2-4-22 8-2z" fill="#FFFFFF"/>
  <defs>
    <linearGradient id="zhipu-grad" x1="24" y1="24" x2="136" y2="136" gradientUnits="userSpaceOnUse">
      <stop stop-color="#7B61FF"/>
      <stop offset="1" stop-color="#4338CA"/>
    </linearGradient>
  </defs>
</svg>